# AST/ASF file generated using VICON BodyLanguage
# -----------------------------------------------
:version 1.10
:name VICON
:units
  mass 1.0
  length 0.45
  angle deg
:documentation
   .ast/.asf automatically generated from VICON data using
   VICON BodyBuilder and BodyLanguage model FoxedUp or BRILLIANT.MOD
:root
   order TX TY TZ RX RY RZ
   axis XYZ
   position 0 0 0  
   orientation 0 0 0 
:bonedata
  begin
     id 1 
     name lhipjoint
     direction 0.646657 -0.683706 0.338203 
     length 2.4948 
     axis 0 0 0  XYZ
  end
  begin
     id 2 
     name lfemur
     direction 0.34202 -0.939693 0  
     length 6.79491  
     axis 0 0 20  XYZ
    dof rx ry rz
    limits (-160.0 20.0)
           (-70.0 70.0)
           (-60.0 70.0)
  end
  begin
     id 3 
     name ltibia
     direction 0.34202 -0.939693 0   
     length 7.56807   
     axis 0 0 20   XYZ
    dof rx
    limits (-10.0 170.0)
  end
  begin
     id 4 
     name lfoot
     direction 0.0679796 -0.186772 0.980048   
     length 2.53018   
     axis -90 7.62852e-016 20   XYZ
    dof rx rz
    limits (-45.0 90.0)
           (-70.0 20.0)
  end
  begin
     id 5 
     name ltoes
     direction 1.53625e-011 -4.21881e-011 1   
     length 1.26912   
     axis -90 7.62852e-016 20   XYZ
    dof rx
    limits (-90.0 20.0)
  end
  begin
     id 6 
     name rhipjoint
     direction -0.618868 -0.704065 0.348274   
     length 2.42265  
     axis 0 0 0  XYZ 
  end
  begin
     id 7 
     name rfemur
     direction -0.34202 -0.939693 0   
     length 6.73814   
     axis 0 0 -20   XYZ
    dof rx ry rz
    limits (-160.0 20.0)
           (-70.0 70.0)
           (-70.0 60.0)
  end
  begin
     id 8 
     name rtibia
     direction -0.34202 -0.939693 0   
     length 7.66799   
     axis 0 0 -20   XYZ
    dof rx
    limits (-10.0 170.0)
 end
 begin
     id 9 
     name rfoot
     direction -0.0727352 -0.199838 0.977125   
     length 2.57224  
     axis -90 -7.62852e-016 -20   XYZ
    dof rx rz
    limits (-45.0 90.0)
           (-20.0 70.0)
  end
  begin
     id 10 
     name rtoes
     direction -1.53501e-011 -4.21858e-011 1   
     length 1.28858   
     axis -90 -7.62852e-016 -20   XYZ
    dof rx
    limits (-90.0 20.0)
  end
  begin
     id 11 
     name lowerback
     direction -0.0172471 0.995767 -0.0902851   
     length 2.20206   
     axis 0 0 0   XYZ
    dof rx ry rz
    limits (-20.0 45.0)
           (-30.0 30.0)
           (-30.0 30.0)
  end
  begin
     id 12 
     name upperback
     direction -0.000110737 0.999714 0.0239043   
     length 2.19523   
     axis 0 0 0   XYZ
    dof rx ry rz
    limits (-20.0 45.0)
           (-30.0 30.0)
           (-30.0 30.0)
  end
  begin
     id 13 
     name thorax
     direction 0.00704869 0.997783 0.0661741   
     length 2.21977   
     axis 0 0 0   XYZ
    dof rx ry rz
    limits (-20.0 45.0)
           (-30.0 30.0)
           (-30.0 30.0)
  end
  begin
     id 14 
     name lowerneck
     direction -0.00407501 0.995527 0.0943846   
     length 1.83142   
     axis 0 0 0   XYZ
    dof rx ry rz
    limits (-20.0 45.0)
           (-30.0 30.0)
           (-30.0 30.0)
  end
  begin
     id 15 
     name upperneck
     direction 0.0640586 0.986486 -0.150807   
     length 1.84616   
     axis 0 0 0   XYZ
    dof rx ry rz
    limits (-20.0 45.0)
           (-30.0 30.0)
           (-30.0 30.0)
  end
  begin
     id 16
     name head
     direction 0.0188017 0.99791 -0.0618239  
     length 1.85932  
     axis 0 0 0   XYZ
    dof rx ry rz
    limits (-20.0 45.0)
           (-30.0 30.0)
           (-30.0 30.0)
  end
  begin
     id 17 
     name lclavicle
     direction 0.976074 0.206905 0.066852  
     length 3.81043  
     axis 0 0 0   XYZ
    dof ry rz
    limits (-20.0 10.0)
           (0.0 20.0)
  end
  begin
     id 18 
     name lhumerus
     direction 1 -4.48971e-011 1.86916e-027   
     length 5.37587   
     axis 180 -30 -90   XYZ
    dof rx ry rz
    limits (-60.0 90.0)
           (-90.0 90.0)
           (-90.0 90.0)
  end
  begin
     id 19
     name lradius
     direction 1 -4.48968e-011 1.69187e-027   
     length 3.35977   
     axis 180 -30 -90   XYZ
    dof rx
    limits (-10.0 170.0)
  end
  begin
     id 20
     name lwrist
     direction 1 -4.48968e-011 5.8978e-027   
     length 1.67988   
     axis -3.27506e-015 90 90   XYZ
    dof ry
    limits (-180.0 0.0)
 end
  begin
     id 21 
     name lhand
     direction 1 -4.49028e-011 1.18071e-026   
     length 0.561859   
     axis -7.52654e-015 90 90   XYZ
    dof rx rz
    limits (-90.0 90.0)
           (-45.0 45.0)
  end
  begin
     id 22 
     name lfingers
     direction 1 -4.48927e-011 2.35758e-026   
     length 0.452985   
     axis -1.50534e-014 90 90   XYZ
    dof rx
    limits (0.0 90.0)
  end
  begin
     id 23
     name lthumb
     direction 0.707107 -6.34898e-011 0.707107   
     length 0.650399   
     axis -90 45 5.69224e-014   XYZ
    dof rx rz
    limits (-45.0 45.0)
           (-45.0 45.0)
  end
  begin
     id 24 
     name rclavicle
     direction -0.988403 0.151789 0.00439714   
     length 3.6942  
     axis 0 0 0   XYZ 
    dof ry rz
    limits (-10.0 20.0)
           (-20.0 0.0)
  end
  begin
     id 25 
     name rhumerus
     direction -1 -4.48978e-011 1.62495e-027  
     length 5.22819   
     axis 180 30 90   XYZ
    dof rx ry rz
    limits (-90.0 60.0)
           (-90.0 90.0)
           (-90.0 90.0)
  end
  begin
     id 26 
     name rradius
     direction -1 -4.48961e-011 3.47796e-027   
     length 3.40764   
     axis 180 30 90   XYZ
    dof rx
    limits (-10.0 170.0)
  end
  begin
     id 27 
     name rwrist
     direction -1 -4.48949e-011 5.89602e-027   
     length 1.70382   
     axis -3.27506e-015 -90 -90   XYZ
    dof ry
    limits (-180.0 0.0)
  end
  begin
     id 28
     name rhand
     direction -1 -4.48977e-011 1.17973e-026   
     length 0.583255   
     axis -7.52654e-015 -90 -90   XYZ
    dof rx rz
    limits (-90.0 90.0)
           (-45.0 45.0)
  end
  begin
     id 29
     name rfingers
     direction -1 -4.49099e-011 2.36408e-026   
     length 0.470235   
     axis -1.50534e-014 -90 -90   XYZ
    dof rx
    limits (0.0 90.0)
  end
  begin
     id 30
     name rthumb
     direction -0.707107 -6.35011e-011 0.707107   
     length 0.675167   
     axis -90 -45 -5.69224e-014   XYZ
    dof rx rz
    limits (-45.0 45.0)
           (-45.0 45.0)
  end
:hierarchy
  begin
    root lhipjoint rhipjoint lowerback
    lhipjoint lfemur
    lfemur ltibia
    ltibia lfoot
    lfoot ltoes
    rhipjoint rfemur
    rfemur rtibia
    rtibia rfoot
    rfoot rtoes
    lowerback upperback
    upperback thorax
    thorax lowerneck lclavicle rclavicle
    lowerneck upperneck
    upperneck head
    lclavicle lhumerus
    lhumerus lradius
    lradius lwrist
    lwrist lhand lthumb
    lhand lfingers
    rclavicle rhumerus
    rhumerus rradius
    rradius rwrist
    rwrist rhand rthumb
    rhand rfingers
  end

#!OML:ASF G:\JayActor3\Patient Classification 1\Patient 1\Session 2\male.ASF
:FULLY-SPECIFIED
:DEGREES
141
root 48.019 16.569 -6.9803 171.936 -86.1677 -174.23
lowerback -3.8867 0.620863 0.685789
upperback 3.90594 0.696392 0.87853
thorax 6.23618 0.336513 0.592071
lowerneck -12.3058 -2.35377 -2.074
upperneck 8.17006 -3.77334 8.05154
head 4.66336 -1.45152 2.54431
rclavicle -6.16232e-015 3.77691e-015
rhumerus -32.1109 -14.7082 -79.6791
rradius 26.2113
rwrist -1.49468
rhand -25.005 4.32649
rfingers 7.12502
rthumb 1.50671 -25.6479
lclavicle -6.16232e-015 3.77691e-015
lhumerus -31.3358 5.83934 84.3648
lradius 25.9241
lwrist 9.46323
lhand -16.2524 16.6274
lfingers 7.12502
lthumb 9.95667 46.3719
rfemur -7.77306 2.88864 20.2551
rtibia 36.0908
rfoot -26.9248 -10.717
rtoes 14.3377
lfemur -2.24866 10.0251 -21.5253
ltibia 27.8062
lfoot -17.1964 9.95081
ltoes -13.2237
142
root 48.0176 16.5691 -6.97043 172.269 -86.1313 -174.553
lowerback -3.89799 0.628005 0.661074
upperback 3.90811 0.708683 0.860206
thorax 6.2448 0.341997 0.588171
lowerneck -12.3104 -2.35133 -2.06312
upperneck 8.20031 -3.77478 8.05522
head 4.67341 -1.45094 2.54357
rclavicle -2.73329e-016 -4.77083e-015
rhumerus -32.1144 -14.7365 -79.7016
rradius 26.2176
rwrist -1.49073
rhand -25.0027 4.33051
rfingers 7.12502
rthumb 1.50894 -25.6439
lclavicle -2.73329e-016 -4.77083e-015
lhumerus -31.3741 5.89606 84.3501
lradius 25.9455
lwrist 9.46976
lhand -16.2424 16.6312
lfingers 7.12502
lthumb 9.9663 46.3753
rfemur -7.79596 2.92821 20.2005
rtibia 36.1077
rfoot -26.9213 -10.719
rtoes 14.2983
lfemur -2.19318 10.0178 -21.599
ltibia 27.692
lfoot -17.2179 10.023
ltoes -13.1105
143
root 48.0163 16.5691 -6.96031 172.536 -86.1007 -174.809
lowerback -3.91006 0.632359 0.644505
upperback 3.90963 0.716662 0.842314
thorax 6.25331 0.345704 0.579761
lowerneck -12.3169 -2.35069 -2.05656
upperneck 8.23346 -3.77801 8.05843
head 4.68485 -1.45127 2.54323
rclavicle 3.77691e-015 1.98785e-015
rhumerus -32.115 -14.7625 -79.7249
rradius 26.2262
rwrist -1.48398
rhand -24.9974 4.33897
rfingers 7.12502
rthumb 1.51403 -25.6354
lclavicle 3.77691e-015 1.98785e-015
lhumerus -31.4104 5.95437 84.3334
lradius 25.9695
lwrist 9.48132
lhand -16.2367 16.6233
lfingers 7.12502
lthumb 9.97181 46.3671
rfemur -7.81947 2.95379 20.1463
rtibia 36.1229
rfoot -26.9131 -10.7169
rtoes 14.2432
lfemur -2.13711 10.0026 -21.6717
ltibia 27.5745
lfoot -17.2421 10.1013
ltoes -13.0114
144
root 48.0151 16.5689 -6.95018 172.74 -86.0712 -175.001
lowerback -3.91943 0.635336 0.634467
upperback 3.91161 0.722272 0.82562
thorax 6.26084 0.348486 0.568686
lowerneck -12.3252 -2.35117 -2.05168
upperneck 8.26774 -3.78172 8.05575
head 4.69683 -1.45213 2.54128
rclavicle -3.27995e-015 -6.95746e-015
rhumerus -32.1126 -14.7847 -79.7496
rradius 26.2377
rwrist -1.47799
rhand -24.9935 4.34752
rfingers 7.12502
rthumb 1.5178 -25.6268
lclavicle -3.27995e-015 -6.95746e-015
lhumerus -31.4436 6.01655 84.3142
lradius 25.9929
lwrist 9.49476
lhand -16.233 16.6049
lfingers 7.12502
lthumb 9.97534 46.3486
rfemur -7.84114 2.974 20.0953
rtibia 36.1377
rfoot -26.9039 -10.7101
rtoes 14.1941
lfemur -2.07734 9.98152 -21.7415
ltibia 27.4548
lfoot -17.2712 10.1828
ltoes -12.8874
145
root 48.014 16.5687 -6.94022 172.891 -86.0424 -175.143
lowerback -3.92587 0.637834 0.626493
upperback 3.91506 0.726957 0.810664
thorax 6.26825 0.350836 0.558151
lowerneck -12.3406 -2.35168 -2.04802
upperneck 8.30285 -3.7847 8.04861
head 4.71014 -1.45271 2.53816
rclavicle -5.66536e-015 2.98177e-015
rhumerus -32.1074 -14.7992 -79.7761
rradius 26.2572
rwrist -1.48117
rhand -25.0013 4.33334
rfingers 7.12502
rthumb 1.51032 -25.6411
lclavicle -5.66536e-015 2.98177e-015
lhumerus -31.4701 6.07657 84.2949
lradius 26.0151
lwrist 9.51126
lhand -16.2309 16.567
lfingers 7.12502
lthumb 9.97739 46.3105
rfemur -7.86213 2.99495 20.0485
rtibia 36.1533
rfoot -26.898 -10.6997
rtoes 14.1632
lfemur -2.01548 9.95376 -21.8089
ltibia 27.334
lfoot -17.302 10.27
ltoes -12.7654
146
root 48.013 16.5683 -6.93055 173.038 -86.0138 -175.282
lowerback -3.92595 0.639818 0.615356
upperback 3.91766 0.731154 0.797215
thorax 6.27104 0.352758 0.550818
lowerneck -12.3551 -2.35038 -2.04343
upperneck 8.33251 -3.78449 8.0377
head 4.72133 -1.45205 2.53397
rclavicle -8.67198e-015 -1.19271e-015
rhumerus -32.1009 -14.8119 -79.8023
rradius 26.2799
rwrist -1.48553
rhand -25.0311 4.28723
rfingers 7.12502
rthumb 1.48157 -25.6874
lclavicle -8.67198e-015 -1.19271e-015
lhumerus -31.4985 6.13023 84.2762
lradius 26.0422
lwrist 9.53202
lhand -16.2284 16.5322
lfingers 7.12502
lthumb 9.97979 46.2756
rfemur -7.88126 3.02018 20.004
rtibia 36.1706
rfoot -26.8936 -10.6914
rtoes 14.1386
lfemur -1.95006 9.92262 -21.8756
ltibia 27.2124
lfoot -17.3333 10.3587
ltoes -12.6329
147
root 48.0121 16.5679 -6.92125 173.191 -85.9867 -175.432
lowerback -3.9211 0.642997 0.599087
upperback 3.92104 0.737253 0.784793
thorax 6.27172 0.355348 0.547547
lowerneck -12.3627 -2.34991 -2.0364
upperneck 8.35139 -3.78441 8.02217
head 4.72793 -1.45205 2.52796
rclavicle -1.90212e-014 -6.16232e-015
rhumerus -32.0948 -14.8257 -79.8265
rradius 26.3077
rwrist -1.49539
rhand -25.0855 4.20638
rfingers 7.12502
rthumb 1.42902 -25.7686
lclavicle -1.90212e-014 -6.16232e-015
lhumerus -31.5261 6.17107 84.2609
lradius 26.0735
lwrist 9.55513
lhand -16.2276 16.4958
lfingers 7.12502
lthumb 9.98059 46.2392
rfemur -7.89718 3.05004 19.9612
rtibia 36.1897
rfoot -26.8941 -10.683
rtoes 14.1329
lfemur -1.88029 9.88864 -21.9416
ltibia 27.0914
lfoot -17.3628 10.4476
ltoes -12.506
148
root 48.0114 16.5674 -6.91231 173.376 -85.9639 -175.618
lowerback -3.91003 0.646328 0.575089
upperback 3.92541 0.744066 0.772961
thorax 6.26975 0.357911 0.549212
lowerneck -12.3673 -2.35054 -2.02908
upperneck 8.35998 -3.78505 8.00611
head 4.73087 -1.45274 2.52169
rclavicle -1.33434e-014 -5.96354e-015
rhumerus -32.09 -14.8364 -79.8492
rradius 26.343
rwrist -1.51193
rhand -25.1555 4.10811
rfingers 7.12502
rthumb 1.36142 -25.8673
lclavicle -1.33434e-014 -5.96354e-015
lhumerus -31.5487 6.19897 84.2503
lradius 26.1061
lwrist 9.58152
lhand -16.2279 16.4737
lfingers 7.12502
lthumb 9.98026 46.2171
rfemur -7.91109 3.08033 19.9177
rtibia 36.2107
rfoot -26.8983 -10.6745
rtoes 14.1393
lfemur -1.8086 9.85353 -22.0082
ltibia 26.9715
lfoot -17.3907 10.5306
ltoes -12.3611
149
root 48.0109 16.5671 -6.90374 173.612 -85.947 -175.859
lowerback -3.89451 0.647075 0.541114
upperback 3.93377 0.748032 0.760722
thorax 6.2693 0.358583 0.555759
lowerneck -12.3709 -2.3512 -2.01381
upperneck 8.35765 -3.78525 7.98158
head 4.72993 -1.45372 2.51151
rclavicle 1.35298e-014 1.45113e-014
rhumerus -32.0821 -14.8369 -79.8769
rradius 26.3871
rwrist -1.53632
rhand -25.2298 4.0091
rfingers 7.12502
rthumb 1.28959 -25.9668
lclavicle 1.35298e-014 1.45113e-014
lhumerus -31.561 6.22322 84.2404
lradius 26.1382
lwrist 9.60809
lhand -16.2329 16.4724
lfingers 7.12502
lthumb 9.97548 46.216
rfemur -7.9218 3.1096 19.872
rtibia 36.2328
rfoot -26.9047 -10.671
rtoes 14.1446
lfemur -1.73658 9.81757 -22.0762
ltibia 26.8553
lfoot -17.414 10.6079
ltoes -12.2412
150
root 48.0105 16.5668 -6.89544 173.898 -85.9311 -176.155
lowerback -3.87555 0.647348 0.498691
upperback 3.94706 0.751753 0.749209
thorax 6.27196 0.358675 0.567772
lowerneck -12.3699 -2.35385 -1.98797
upperneck 8.33699 -3.7863 7.93933
head 4.72201 -1.45633 2.49403
rclavicle -2.23633e-016 -5.96354e-016
rhumerus -32.0703 -14.8281 -79.9056
rradius 26.4373
rwrist -1.56815
rhand -25.2968 3.93354
rfingers 7.12502
rthumb 1.22487 -26.0427
lclavicle -2.23633e-016 -5.96354e-016
lhumerus -31.5615 6.24787 84.233
lradius 26.1652
lwrist 9.62928
lhand -16.2436 16.4874
lfingers 7.12502
lthumb 9.96515 46.2315
rfemur -7.92829 3.13762 19.8232
rtibia 36.255
rfoot -26.9097 -10.6684
rtoes 14.1441
lfemur -1.66471 9.78411 -22.1446
ltibia 26.7451
lfoot -17.4321 10.6793
ltoes -12.1248
151
root 48.0102 16.5665 -6.88736 174.181 -85.9184 -176.449
lowerback -3.85497 0.645884 0.454191
upperback 3.96184 0.753208 0.738121
thorax 6.27524 0.357517 0.581173
lowerneck -12.3607 -2.35711 -1.95583
upperneck 8.30392 -3.78718 7.88756
head 4.70859 -1.45966 2.47262
rclavicle 1.29334e-014 7.15625e-015
rhumerus -32.06 -14.8063 -79.9375
rradius 26.4939
rwrist -1.60774
rhand -25.3485 3.88836
rfingers 7.12502
rthumb 1.17498 -26.0881
lclavicle 1.29334e-014 7.15625e-015
lhumerus -31.557 6.2701 84.2262
lradius 26.1894
lwrist 9.64744
lhand -16.2581 16.505
lfingers 7.12502
lthumb 9.95114 46.2498
rfemur -7.93252 3.16401 19.7753
rtibia 36.276
rfoot -26.9127 -10.6704
rtoes 14.1367
lfemur -1.59698 9.75114 -22.2095
ltibia 26.6434
lfoot -17.448 10.7397
ltoes -12.0139
